<svg width="26" height="26" viewBox="0 0 26 26" fill="none" xmlns="http://www.w3.org/2000/svg">
<path d="M25.3499 20.131C8.66651 22.9666 2.97748 9.96657 13.0289 0.649902C-1.73343 1.2999 -1.80448 15.7592 2.97748 20.7594C12.1333 30.3332 25.3499 20.131 25.3499 20.131Z" fill="black"/>
<path d="M16.4667 5.2C16.2457 5.2 16.1352 5.08606 16.1352 4.85817V2.89004H14.1982C13.9772 2.89004 13.8667 2.783 13.8667 2.56892C13.8667 2.35485 13.9772 2.24781 14.1982 2.24781H16.1352V0.341833C16.1352 0.113944 16.2457 0 16.4667 0C16.6877 0 16.7982 0.113944 16.7982 0.341833V2.24781H18.7352C18.9562 2.24781 19.0667 2.35485 19.0667 2.56892C19.0667 2.783 18.9562 2.89004 18.7352 2.89004H16.7982V4.85817C16.7982 5.08606 16.6877 5.2 16.4667 5.2Z" fill="black"/>
<path d="M22.9665 9.53353C22.7823 9.53353 22.6902 9.43858 22.6902 9.24867V7.60856H21.076C20.8919 7.60856 20.7998 7.51936 20.7998 7.34097C20.7998 7.16257 20.8919 7.07337 21.076 7.07337H22.6902V5.48506C22.6902 5.29515 22.7823 5.2002 22.9665 5.2002C23.1506 5.2002 23.2427 5.29515 23.2427 5.48506V7.07337H24.8569C25.0411 7.07337 25.1331 7.16257 25.1331 7.34097C25.1331 7.51936 25.0411 7.60856 24.8569 7.60856H23.2427V9.24867C23.2427 9.43858 23.1506 9.53353 22.9665 9.53353Z" fill="black"/>
<path d="M14.3 13.8665C14.1158 13.8665 14.0237 13.7716 14.0237 13.5817V11.9416H12.4095C12.2254 11.9416 12.1333 11.8524 12.1333 11.674C12.1333 11.4956 12.2254 11.4064 12.4095 11.4064H14.0237V9.81806C14.0237 9.62816 14.1158 9.5332 14.3 9.5332C14.4841 9.5332 14.5762 9.62816 14.5762 9.81806V11.4064H16.1904C16.3746 11.4064 16.4666 11.4956 16.4666 11.674C16.4666 11.8524 16.3746 11.9416 16.1904 11.9416H14.5762V13.5817C14.5762 13.7716 14.4841 13.8665 14.3 13.8665Z" fill="black"/>
<path d="M22.9665 18.2C22.7823 18.2 22.6902 18.1051 22.6902 17.9152V16.2751H21.076C20.8919 16.2751 20.7998 16.1859 20.7998 16.0075C20.7998 15.8291 20.8919 15.7399 21.076 15.7399H22.6902V14.1516C22.6902 13.9617 22.7823 13.8667 22.9665 13.8667C23.1506 13.8667 23.2427 13.9617 23.2427 14.1516V15.7399H24.8569C25.0411 15.7399 25.1331 15.8291 25.1331 16.0075C25.1331 16.1859 25.0411 16.2751 24.8569 16.2751H23.2427V17.9152C23.2427 18.1051 23.1506 18.2 22.9665 18.2Z" fill="black"/>
</svg>
